<mxfile host="app.diagrams.net" modified="2024-02-10T12:40:43.620Z" agent="Mozilla/5.0 (Windows NT 10.0; Win64; x64) AppleWebKit/537.36 (KHTML, like Gecko) Chrome/121.0.0.0 Safari/537.36" etag="wUoQLVIsZAqyJ1szyaXh" version="23.1.1" type="github" pages="2">
  <diagram id="0" name="PÃ¡gina-1">
    <mxGraphModel dx="1173" dy="1105" grid="1" gridSize="10" guides="1" tooltips="1" connect="1" arrows="1" fold="1" page="1" pageScale="1" pageWidth="826" pageHeight="1169" background="#ffffff" math="0" shadow="0">
      <root>
        <mxCell id="0" />
        <mxCell id="1" parent="0" />
        <mxCell id="39c1270dc46fbfdf-1" value="Customer" style="swimlane;fontStyle=0;childLayout=stackLayout;horizontal=1;startSize=26;fillColor=#DEDEDE;horizontalStack=0;resizeParent=1;resizeLast=0;collapsible=1;marginBottom=0;swimlaneFillColor=#ffffff;rounded=0;shadow=0;strokeWidth=1;strokeColor=#36393d;" parent="1" vertex="1">
          <mxGeometry x="98" y="68" width="160" height="78" as="geometry">
            <mxRectangle x="120" y="120" width="160" height="26" as="alternateBounds" />
          </mxGeometry>
        </mxCell>
        <mxCell id="39c1270dc46fbfdf-2" value="CustomerId" style="shape=partialRectangle;top=0;left=0;right=0;bottom=1;align=left;verticalAlign=top;fillColor=none;spacingLeft=40;spacingRight=4;overflow=hidden;rotatable=0;points=[[0,0.5],[1,0.5]];portConstraint=eastwest;dropTarget=0;rounded=0;shadow=0;strokeWidth=1;fontStyle=4" parent="39c1270dc46fbfdf-1" vertex="1">
          <mxGeometry y="26" width="160" height="26" as="geometry" />
        </mxCell>
        <mxCell id="39c1270dc46fbfdf-3" value="PK" style="shape=partialRectangle;top=0;left=0;bottom=0;fillColor=none;align=left;verticalAlign=top;spacingLeft=4;spacingRight=4;overflow=hidden;rotatable=0;points=[];portConstraint=eastwest;part=1;" parent="39c1270dc46fbfdf-2" vertex="1" connectable="0">
          <mxGeometry width="36" height="26" as="geometry" />
        </mxCell>
        <mxCell id="39c1270dc46fbfdf-4" value="Name" style="shape=partialRectangle;top=0;left=0;right=0;bottom=0;align=left;verticalAlign=top;fillColor=none;spacingLeft=40;spacingRight=4;overflow=hidden;rotatable=0;points=[[0,0.5],[1,0.5]];portConstraint=eastwest;dropTarget=0;rounded=0;shadow=0;strokeWidth=1;" parent="39c1270dc46fbfdf-1" vertex="1">
          <mxGeometry y="52" width="160" height="26" as="geometry" />
        </mxCell>
        <mxCell id="39c1270dc46fbfdf-5" value="" style="shape=partialRectangle;top=0;left=0;bottom=0;fillColor=none;align=left;verticalAlign=top;spacingLeft=4;spacingRight=4;overflow=hidden;rotatable=0;points=[];portConstraint=eastwest;part=1;" parent="39c1270dc46fbfdf-4" vertex="1" connectable="0">
          <mxGeometry width="36" height="26" as="geometry" />
        </mxCell>
        <mxCell id="39c1270dc46fbfdf-6" value="Order" style="swimlane;fontStyle=0;childLayout=stackLayout;horizontal=1;startSize=26;fillColor=#DEDEDE;horizontalStack=0;resizeParent=1;resizeLast=0;collapsible=1;marginBottom=0;swimlaneFillColor=#ffffff;rounded=0;shadow=0;strokeWidth=1;strokeColor=#36393d;" parent="1" vertex="1">
          <mxGeometry x="390" y="185" width="160" height="104" as="geometry">
            <mxRectangle x="360" y="120" width="160" height="26" as="alternateBounds" />
          </mxGeometry>
        </mxCell>
        <mxCell id="39c1270dc46fbfdf-7" value="OrderId" style="shape=partialRectangle;top=0;left=0;right=0;bottom=1;align=left;verticalAlign=top;fillColor=none;spacingLeft=40;spacingRight=4;overflow=hidden;rotatable=0;points=[[0,0.5],[1,0.5]];portConstraint=eastwest;dropTarget=0;rounded=0;shadow=0;strokeWidth=1;fontStyle=4" parent="39c1270dc46fbfdf-6" vertex="1">
          <mxGeometry y="26" width="160" height="26" as="geometry" />
        </mxCell>
        <mxCell id="39c1270dc46fbfdf-8" value="PK" style="shape=partialRectangle;top=0;left=0;bottom=0;fillColor=none;align=left;verticalAlign=top;spacingLeft=4;spacingRight=4;overflow=hidden;rotatable=0;points=[];portConstraint=eastwest;part=1;" parent="39c1270dc46fbfdf-7" vertex="1" connectable="0">
          <mxGeometry width="36" height="26" as="geometry" />
        </mxCell>
        <mxCell id="39c1270dc46fbfdf-9" value="CustomerId" style="shape=partialRectangle;top=0;left=0;right=0;bottom=0;align=left;verticalAlign=top;fillColor=none;spacingLeft=40;spacingRight=4;overflow=hidden;rotatable=0;points=[[0,0.5],[1,0.5]];portConstraint=eastwest;dropTarget=0;rounded=0;shadow=0;strokeWidth=1;" parent="39c1270dc46fbfdf-6" vertex="1">
          <mxGeometry y="52" width="160" height="26" as="geometry" />
        </mxCell>
        <mxCell id="39c1270dc46fbfdf-10" value="FK1" style="shape=partialRectangle;top=0;left=0;bottom=0;fillColor=none;align=left;verticalAlign=top;spacingLeft=4;spacingRight=4;overflow=hidden;rotatable=0;points=[];portConstraint=eastwest;part=1;" parent="39c1270dc46fbfdf-9" vertex="1" connectable="0">
          <mxGeometry width="36" height="26" as="geometry" />
        </mxCell>
        <mxCell id="39c1270dc46fbfdf-11" value="Date" style="shape=partialRectangle;top=0;left=0;right=0;bottom=0;align=left;verticalAlign=top;fillColor=none;spacingLeft=40;spacingRight=4;overflow=hidden;rotatable=0;points=[[0,0.5],[1,0.5]];portConstraint=eastwest;dropTarget=0;rounded=0;shadow=0;strokeWidth=1;" parent="39c1270dc46fbfdf-6" vertex="1">
          <mxGeometry y="78" width="160" height="26" as="geometry" />
        </mxCell>
        <mxCell id="39c1270dc46fbfdf-12" value="" style="shape=partialRectangle;top=0;left=0;bottom=0;fillColor=none;align=left;verticalAlign=top;spacingLeft=4;spacingRight=4;overflow=hidden;rotatable=0;points=[];portConstraint=eastwest;part=1;" parent="39c1270dc46fbfdf-11" vertex="1" connectable="0">
          <mxGeometry width="36" height="26" as="geometry" />
        </mxCell>
        <mxCell id="39c1270dc46fbfdf-13" value="" style="edgeStyle=entityRelationEdgeStyle;endArrow=ERzeroToMany;startArrow=ERmandOne;shadow=0;strokeWidth=1;" parent="1" source="39c1270dc46fbfdf-2" target="39c1270dc46fbfdf-7" edge="1">
          <mxGeometry width="100" height="100" relative="1" as="geometry">
            <mxPoint x="300" y="390" as="sourcePoint" />
            <mxPoint x="400" y="290" as="targetPoint" />
          </mxGeometry>
        </mxCell>
        <mxCell id="39c1270dc46fbfdf-14" value="Shipment" style="swimlane;fontStyle=0;childLayout=stackLayout;horizontal=1;startSize=26;fillColor=#DEDEDE;horizontalStack=0;resizeParent=1;resizeLast=0;collapsible=1;marginBottom=0;swimlaneFillColor=#ffffff;rounded=0;shadow=0;strokeWidth=1;strokeColor=#36393d;" parent="1" vertex="1">
          <mxGeometry x="116" y="244" width="160" height="168" as="geometry">
            <mxRectangle x="360" y="310" width="160" height="26" as="alternateBounds" />
          </mxGeometry>
        </mxCell>
        <mxCell id="39c1270dc46fbfdf-15" value="ShipmentId" style="shape=partialRectangle;top=0;left=0;right=0;bottom=1;align=left;verticalAlign=top;fillColor=none;spacingLeft=40;spacingRight=4;overflow=hidden;rotatable=0;points=[[0,0.5],[1,0.5]];portConstraint=eastwest;dropTarget=0;rounded=0;shadow=0;strokeWidth=1;fontStyle=4" parent="39c1270dc46fbfdf-14" vertex="1">
          <mxGeometry y="26" width="160" height="26" as="geometry" />
        </mxCell>
        <mxCell id="39c1270dc46fbfdf-16" value="PK" style="shape=partialRectangle;top=0;left=0;bottom=0;fillColor=none;align=left;verticalAlign=top;spacingLeft=4;spacingRight=4;overflow=hidden;rotatable=0;points=[];portConstraint=eastwest;part=1;" parent="39c1270dc46fbfdf-15" vertex="1" connectable="0">
          <mxGeometry width="36" height="26" as="geometry" />
        </mxCell>
        <mxCell id="39c1270dc46fbfdf-17" value="OrderId" style="shape=partialRectangle;top=0;left=0;right=0;bottom=0;align=left;verticalAlign=top;fillColor=none;spacingLeft=40;spacingRight=4;overflow=hidden;rotatable=0;points=[[0,0.5],[1,0.5]];portConstraint=eastwest;dropTarget=0;rounded=0;shadow=0;strokeWidth=1;" parent="39c1270dc46fbfdf-14" vertex="1">
          <mxGeometry y="52" width="160" height="26" as="geometry" />
        </mxCell>
        <mxCell id="39c1270dc46fbfdf-18" value="FK1" style="shape=partialRectangle;top=0;left=0;bottom=0;fillColor=none;align=left;verticalAlign=top;spacingLeft=4;spacingRight=4;overflow=hidden;rotatable=0;points=[];portConstraint=eastwest;part=1;" parent="39c1270dc46fbfdf-17" vertex="1" connectable="0">
          <mxGeometry width="36" height="26" as="geometry" />
        </mxCell>
        <mxCell id="39c1270dc46fbfdf-19" value="Field 1" style="shape=partialRectangle;top=0;left=0;right=0;bottom=0;align=left;verticalAlign=top;fillColor=none;spacingLeft=40;spacingRight=4;overflow=hidden;rotatable=0;points=[[0,0.5],[1,0.5]];portConstraint=eastwest;dropTarget=0;rounded=0;shadow=0;strokeWidth=1;" parent="39c1270dc46fbfdf-14" vertex="1">
          <mxGeometry y="78" width="160" height="26" as="geometry" />
        </mxCell>
        <mxCell id="39c1270dc46fbfdf-20" value="" style="shape=partialRectangle;top=0;left=0;bottom=0;fillColor=none;align=left;verticalAlign=top;spacingLeft=4;spacingRight=4;overflow=hidden;rotatable=0;points=[];portConstraint=eastwest;part=1;" parent="39c1270dc46fbfdf-19" vertex="1" connectable="0">
          <mxGeometry width="36" height="26" as="geometry" />
        </mxCell>
        <mxCell id="39c1270dc46fbfdf-53" value="Field 2" style="shape=partialRectangle;top=0;left=0;right=0;bottom=0;align=left;verticalAlign=top;fillColor=none;spacingLeft=40;spacingRight=4;overflow=hidden;rotatable=0;points=[[0,0.5],[1,0.5]];portConstraint=eastwest;dropTarget=0;rounded=0;shadow=0;strokeWidth=1;" parent="39c1270dc46fbfdf-14" vertex="1">
          <mxGeometry y="104" width="160" height="26" as="geometry" />
        </mxCell>
        <mxCell id="39c1270dc46fbfdf-54" value="" style="shape=partialRectangle;top=0;left=0;bottom=0;fillColor=none;align=left;verticalAlign=top;spacingLeft=4;spacingRight=4;overflow=hidden;rotatable=0;points=[];portConstraint=eastwest;part=1;" parent="39c1270dc46fbfdf-53" vertex="1" connectable="0">
          <mxGeometry width="36" height="26" as="geometry" />
        </mxCell>
        <mxCell id="6e64a9c96dd261fc-7" value="Test2" style="shape=partialRectangle;top=0;left=0;right=0;bottom=0;align=left;verticalAlign=top;fillColor=none;spacingLeft=40;spacingRight=4;overflow=hidden;rotatable=0;points=[[0,0.5],[1,0.5]];portConstraint=eastwest;dropTarget=0;rounded=0;shadow=0;strokeWidth=1;" parent="39c1270dc46fbfdf-14" vertex="1">
          <mxGeometry y="130" width="160" height="38" as="geometry" />
        </mxCell>
        <mxCell id="6e64a9c96dd261fc-8" value="" style="shape=partialRectangle;top=0;left=0;bottom=0;fillColor=none;align=left;verticalAlign=top;spacingLeft=4;spacingRight=4;overflow=hidden;rotatable=0;points=[];portConstraint=eastwest;part=1;" parent="6e64a9c96dd261fc-7" vertex="1" connectable="0">
          <mxGeometry width="36" height="38" as="geometry" />
        </mxCell>
        <mxCell id="39c1270dc46fbfdf-21" value="" style="edgeStyle=entityRelationEdgeStyle;endArrow=ERzeroToMany;startArrow=ERmandOne;shadow=0;strokeWidth=1;" parent="1" source="39c1270dc46fbfdf-6" target="39c1270dc46fbfdf-17" edge="1">
          <mxGeometry width="100" height="100" relative="1" as="geometry">
            <mxPoint x="400" y="182" as="sourcePoint" />
            <mxPoint x="320" y="169" as="targetPoint" />
          </mxGeometry>
        </mxCell>
      </root>
    </mxGraphModel>
  </diagram>
  <diagram id="D9KOZ9luQWAlihBMIR47" name="PÃ¡gina-2">
    <mxGraphModel dx="1098" dy="1300" grid="1" gridSize="10" guides="1" tooltips="1" connect="1" arrows="1" fold="1" page="1" pageScale="1" pageWidth="827" pageHeight="1169" math="0" shadow="0">
      <root>
        <mxCell id="0" />
        <mxCell id="1" parent="0" />
        <mxCell id="Anxl3NM_Q47MBTTc-A9p-16" style="edgeStyle=orthogonalEdgeStyle;rounded=0;orthogonalLoop=1;jettySize=auto;html=1;entryX=0;entryY=0.5;entryDx=0;entryDy=0;" edge="1" parent="1" source="Anxl3NM_Q47MBTTc-A9p-1" target="Anxl3NM_Q47MBTTc-A9p-2">
          <mxGeometry relative="1" as="geometry" />
        </mxCell>
        <mxCell id="Anxl3NM_Q47MBTTc-A9p-1" value="Salva este item:&lt;br&gt;&quot;item A&quot;" style="rounded=0;whiteSpace=wrap;html=1;fillColor=#d5e8d4;strokeColor=#82b366;" vertex="1" parent="1">
          <mxGeometry x="40" y="160" width="120" height="80" as="geometry" />
        </mxCell>
        <mxCell id="Anxl3NM_Q47MBTTc-A9p-17" style="edgeStyle=orthogonalEdgeStyle;rounded=0;orthogonalLoop=1;jettySize=auto;html=1;exitX=1;exitY=0.5;exitDx=0;exitDy=0;entryX=0.5;entryY=0;entryDx=0;entryDy=0;" edge="1" parent="1" source="Anxl3NM_Q47MBTTc-A9p-2" target="Anxl3NM_Q47MBTTc-A9p-3">
          <mxGeometry relative="1" as="geometry" />
        </mxCell>
        <mxCell id="Anxl3NM_Q47MBTTc-A9p-2" value="UsuÃ¡rio quer salvar &quot;item A&quot;. Usar funÃ§Ã£o &quot;salva_item(item)&quot;" style="rounded=0;whiteSpace=wrap;html=1;" vertex="1" parent="1">
          <mxGeometry x="320" y="240" width="160" height="80" as="geometry" />
        </mxCell>
        <mxCell id="Anxl3NM_Q47MBTTc-A9p-18" style="edgeStyle=orthogonalEdgeStyle;rounded=0;orthogonalLoop=1;jettySize=auto;html=1;exitX=0.5;exitY=1;exitDx=0;exitDy=0;entryX=1;entryY=0.5;entryDx=0;entryDy=0;" edge="1" parent="1" source="Anxl3NM_Q47MBTTc-A9p-3" target="Anxl3NM_Q47MBTTc-A9p-4">
          <mxGeometry relative="1" as="geometry" />
        </mxCell>
        <mxCell id="Anxl3NM_Q47MBTTc-A9p-3" value="salva (item):&lt;br&gt;crud()&lt;br&gt;return ID-A" style="rounded=0;whiteSpace=wrap;html=1;" vertex="1" parent="1">
          <mxGeometry x="520" y="320" width="120" height="80" as="geometry" />
        </mxCell>
        <mxCell id="Anxl3NM_Q47MBTTc-A9p-19" style="edgeStyle=orthogonalEdgeStyle;rounded=0;orthogonalLoop=1;jettySize=auto;html=1;exitX=0;exitY=0.5;exitDx=0;exitDy=0;entryX=0.5;entryY=0;entryDx=0;entryDy=0;" edge="1" parent="1" source="Anxl3NM_Q47MBTTc-A9p-4" target="Anxl3NM_Q47MBTTc-A9p-5">
          <mxGeometry relative="1" as="geometry" />
        </mxCell>
        <mxCell id="Anxl3NM_Q47MBTTc-A9p-4" value="processa retorno" style="rounded=0;whiteSpace=wrap;html=1;" vertex="1" parent="1">
          <mxGeometry x="320" y="400" width="160" height="80" as="geometry" />
        </mxCell>
        <mxCell id="Anxl3NM_Q47MBTTc-A9p-5" value="&quot;Item salvo&quot;" style="rounded=0;whiteSpace=wrap;html=1;fillColor=#fff2cc;strokeColor=#d6b656;" vertex="1" parent="1">
          <mxGeometry x="160" y="480" width="120" height="80" as="geometry" />
        </mxCell>
        <mxCell id="Anxl3NM_Q47MBTTc-A9p-20" style="edgeStyle=orthogonalEdgeStyle;rounded=0;orthogonalLoop=1;jettySize=auto;html=1;exitX=1;exitY=0.5;exitDx=0;exitDy=0;entryX=0;entryY=0.5;entryDx=0;entryDy=0;" edge="1" parent="1" source="Anxl3NM_Q47MBTTc-A9p-6" target="Anxl3NM_Q47MBTTc-A9p-7">
          <mxGeometry relative="1" as="geometry" />
        </mxCell>
        <mxCell id="Anxl3NM_Q47MBTTc-A9p-6" value="Muda status para vendido" style="rounded=0;whiteSpace=wrap;html=1;fillColor=#d5e8d4;strokeColor=#82b366;" vertex="1" parent="1">
          <mxGeometry x="40" y="600" width="120" height="80" as="geometry" />
        </mxCell>
        <mxCell id="Anxl3NM_Q47MBTTc-A9p-21" style="edgeStyle=orthogonalEdgeStyle;rounded=0;orthogonalLoop=1;jettySize=auto;html=1;exitX=1;exitY=0.5;exitDx=0;exitDy=0;entryX=0.5;entryY=0;entryDx=0;entryDy=0;" edge="1" parent="1" source="Anxl3NM_Q47MBTTc-A9p-7" target="Anxl3NM_Q47MBTTc-A9p-8">
          <mxGeometry relative="1" as="geometry" />
        </mxCell>
        <mxCell id="Anxl3NM_Q47MBTTc-A9p-25" style="edgeStyle=orthogonalEdgeStyle;rounded=0;orthogonalLoop=1;jettySize=auto;html=1;exitX=0.5;exitY=1;exitDx=0;exitDy=0;entryX=1;entryY=0.5;entryDx=0;entryDy=0;fillColor=#f8cecc;strokeColor=#b85450;" edge="1" parent="1" source="Anxl3NM_Q47MBTTc-A9p-7" target="Anxl3NM_Q47MBTTc-A9p-24">
          <mxGeometry relative="1" as="geometry" />
        </mxCell>
        <mxCell id="Anxl3NM_Q47MBTTc-A9p-7" value="UsuÃ¡rio quer atualizar ID-A. Usar funÃ§Ã£o &quot;atualiza_item(ID,item)&quot;" style="rounded=0;whiteSpace=wrap;html=1;" vertex="1" parent="1">
          <mxGeometry x="320" y="680" width="160" height="80" as="geometry" />
        </mxCell>
        <mxCell id="Anxl3NM_Q47MBTTc-A9p-22" style="edgeStyle=orthogonalEdgeStyle;rounded=0;orthogonalLoop=1;jettySize=auto;html=1;exitX=0.5;exitY=1;exitDx=0;exitDy=0;entryX=1;entryY=0.5;entryDx=0;entryDy=0;" edge="1" parent="1" source="Anxl3NM_Q47MBTTc-A9p-8" target="Anxl3NM_Q47MBTTc-A9p-9">
          <mxGeometry relative="1" as="geometry" />
        </mxCell>
        <mxCell id="Anxl3NM_Q47MBTTc-A9p-8" value="atualiza (id, item):&lt;br&gt;crud()&lt;br&gt;return True" style="rounded=0;whiteSpace=wrap;html=1;" vertex="1" parent="1">
          <mxGeometry x="520" y="840" width="120" height="80" as="geometry" />
        </mxCell>
        <mxCell id="Anxl3NM_Q47MBTTc-A9p-9" value="processa retorno" style="rounded=0;whiteSpace=wrap;html=1;" vertex="1" parent="1">
          <mxGeometry x="320" y="920" width="160" height="80" as="geometry" />
        </mxCell>
        <mxCell id="Anxl3NM_Q47MBTTc-A9p-10" value="&quot;Item atualizado para vendido&quot;" style="rounded=0;whiteSpace=wrap;html=1;fillColor=#fff2cc;strokeColor=#d6b656;" vertex="1" parent="1">
          <mxGeometry x="160" y="1000" width="120" height="80" as="geometry" />
        </mxCell>
        <mxCell id="Anxl3NM_Q47MBTTc-A9p-11" value="" style="endArrow=none;dashed=1;html=1;rounded=0;" edge="1" parent="1">
          <mxGeometry width="50" height="50" relative="1" as="geometry">
            <mxPoint x="300" y="1080" as="sourcePoint" />
            <mxPoint x="300" y="40" as="targetPoint" />
          </mxGeometry>
        </mxCell>
        <mxCell id="Anxl3NM_Q47MBTTc-A9p-12" value="" style="endArrow=none;dashed=1;html=1;rounded=0;" edge="1" parent="1">
          <mxGeometry width="50" height="50" relative="1" as="geometry">
            <mxPoint x="500" y="1080" as="sourcePoint" />
            <mxPoint x="500" y="40" as="targetPoint" />
          </mxGeometry>
        </mxCell>
        <mxCell id="Anxl3NM_Q47MBTTc-A9p-13" value="Interface de Chat com usuÃ¡rio" style="ellipse;whiteSpace=wrap;html=1;" vertex="1" parent="1">
          <mxGeometry x="60" width="180" height="110" as="geometry" />
        </mxCell>
        <mxCell id="Anxl3NM_Q47MBTTc-A9p-14" value="Chatgpt" style="ellipse;whiteSpace=wrap;html=1;" vertex="1" parent="1">
          <mxGeometry x="310" width="180" height="110" as="geometry" />
        </mxCell>
        <mxCell id="Anxl3NM_Q47MBTTc-A9p-15" value="Backend" style="ellipse;whiteSpace=wrap;html=1;" vertex="1" parent="1">
          <mxGeometry x="520" width="180" height="110" as="geometry" />
        </mxCell>
        <mxCell id="Anxl3NM_Q47MBTTc-A9p-23" style="edgeStyle=orthogonalEdgeStyle;rounded=0;orthogonalLoop=1;jettySize=auto;html=1;exitX=0;exitY=0.5;exitDx=0;exitDy=0;entryX=0.436;entryY=-0.008;entryDx=0;entryDy=0;entryPerimeter=0;" edge="1" parent="1" source="Anxl3NM_Q47MBTTc-A9p-9" target="Anxl3NM_Q47MBTTc-A9p-10">
          <mxGeometry relative="1" as="geometry" />
        </mxCell>
        <mxCell id="Anxl3NM_Q47MBTTc-A9p-24" value="&quot;Item atualizado para vendido&quot;" style="rounded=0;whiteSpace=wrap;html=1;fillColor=#f8cecc;strokeColor=#b85450;" vertex="1" parent="1">
          <mxGeometry x="160" y="800" width="120" height="80" as="geometry" />
        </mxCell>
        <mxCell id="Anxl3NM_Q47MBTTc-A9p-27" value="" style="verticalLabelPosition=bottom;verticalAlign=top;html=1;shape=mxgraph.basic.tick;fillColor=#d5e8d4;strokeColor=#82b366;" vertex="1" parent="1">
          <mxGeometry x="100" y="1020" width="50" height="40" as="geometry" />
        </mxCell>
        <mxCell id="Anxl3NM_Q47MBTTc-A9p-28" value="" style="verticalLabelPosition=bottom;verticalAlign=top;html=1;shape=mxgraph.basic.x;fillColor=#f8cecc;strokeColor=#b85450;" vertex="1" parent="1">
          <mxGeometry x="100" y="815" width="50" height="50" as="geometry" />
        </mxCell>
      </root>
    </mxGraphModel>
  </diagram>
</mxfile>
